<?xml version="1.0" encoding="UTF-8" standalone="no"?>
<svg
   height="86.90625"
   width="79.59375"
   version="1.0"
   id="svg37"
   xmlns="http://www.w3.org/2000/svg"
   xmlns:svg="http://www.w3.org/2000/svg">
  <defs
     id="defs549">
    <marker
       id="ArrowEnd"
       markerHeight="3"
       markerUnits="strokeWidth"
       markerWidth="4"
       orient="auto"
       refX="0"
       refY="5"
       viewBox="0 0 10 10">
      <path
         d="M 0,0 10,5 0,10 0,0 z"
         id="path551" />
    </marker>
    <marker
       id="ArrowStart"
       markerHeight="3"
       markerUnits="strokeWidth"
       markerWidth="4"
       orient="auto"
       refX="10"
       refY="5"
       viewBox="0 0 10 10">
      <path
         d="M 10,0 0,5 10,10 10,0 z"
         id="path553" />
    </marker>
    <style
       type="text/css"
       id="style2435">
   
    .str0 {stroke:#000000;stroke-width:3}
    .fil1 {fill:none}
    .fil2 {fill:#0039F0}
    .fil0 {fill:#FFFF00}
   
  </style>
    <marker
       markerUnits="strokeWidth"
       refX="10"
       refY="5"
       markerWidth="4"
       markerHeight="3"
       orient="auto"
       viewBox="0 0 10 10"
       id="marker5117">
      <path
         d="M 10,0 0,5 10,10 10,0 z"
         id="path5119" />
    </marker>
    <marker
       markerUnits="strokeWidth"
       refX="0"
       refY="5"
       markerWidth="4"
       markerHeight="3"
       orient="auto"
       viewBox="0 0 10 10"
       id="marker5113">
      <path
         d="M 0,0 10,5 0,10 0,0 z"
         id="path5115" />
    </marker>
    <style
       type="text/css"
       id="style9750">
   
    .str0 {stroke:#000000;stroke-width:3}
    .fil1 {fill:none}
    .fil2 {fill:#0039F0}
    .fil0 {fill:#FFFF00}
   
  </style>
    <marker
       markerUnits="strokeWidth"
       refX="10"
       refY="5"
       markerWidth="4"
       markerHeight="3"
       orient="auto"
       viewBox="0 0 10 10"
       id="marker9746">
      <path
         d="M 10,0 0,5 10,10 10,0 z"
         id="path9748" />
    </marker>
    <marker
       markerUnits="strokeWidth"
       refX="0"
       refY="5"
       markerWidth="4"
       markerHeight="3"
       orient="auto"
       viewBox="0 0 10 10"
       id="marker9742">
      <path
         d="M 0,0 10,5 0,10 0,0 z"
         id="path9744" />
    </marker>
  </defs>
  <g
     id="g590"
     transform="matrix(2.402975,0,0,2.403837,591.75244,359.95939)"
     style="stroke:none">
    <path
       style="font-size:12px;fill:#c60b1e;fill-opacity:1;stroke:none"
       d="m -591.15625,-309.09375 -0.8125,0.40625 -0.8125,0 -0.40625,0.40625 -0.40625,0 -0.40625,0.40625 -0.40625,0.40625 -0.8125,0.40625 0,0.8125 -0.40625,0.40625 -0.40625,0.8125 -1.1875,0.8125 -0.40625,0.40625 0,0.375 -0.40625,-0.375 -0.40625,0.375 -0.40625,0.40625 -0.8125,0.40625 0,0.40625 -0.40625,0 -0.8125,0.8125 -0.40625,1.21875 -0.40625,0.40625 -0.40625,0.40625 0,0.40625 -0.375,0.40625 -0.40625,0.8125 -1.21875,0.375 -0.40625,0.40625 -0.40625,0 -0.40625,0 -0.8125,0 -0.40625,0.40625 -0.40625,0 -0.40625,0.40625 -0.40625,0 -0.375,0 -0.40625,0.40625 -0.40625,0 0,0.40625 -0.40625,0.40625 -0.40625,0.40625 0,0.40625 -0.40625,0.40625 0,0.40625 -0.40625,0.40625 -0.40625,0 0,0.8125 -0.40625,0 0,0.78125 -0.40625,0.40625 0.40625,0.40625 0,0.8125 0,0.40625 0,0.40625 -0.8125,1.21875 0,0.40625 -0.40625,0.40625 0.40625,0.8125 -0.40625,0.78125 -0.40625,0.40625 -0.40625,0.40625 0.40625,0.8125 -0.40625,0.40625 0,-0.40625 -0.40625,0 -0.78125,0 -0.40625,0.40625 -0.40625,0 -1.21875,0 0,-0.40625 -1.21875,-0.40625 -0.40625,0.40625 0,0.40625 -0.40625,0.40625 -0.8125,0.8125 0.40625,0.40625 -0.40625,0.8125 -0.375,0 -0.40625,0.40625 -0.40625,0.78125 -0.40625,0.40625 -0.40625,0 0,0.8125 -0.40625,0.8125 -0.40625,0.40625 -0.40625,0 -0.8125,0.8125 0,0.40625 0,0.40625 0.40625,0.40625 0,0.8125 0,0.375 -0.40625,0.40625 0.40625,0.40625 -0.40625,0 0.40625,0.40625 0.40625,0 0,0.40625 -0.8125,0.40625 -0.8125,0 -1.21875,0.8125 -1.59375,0 -0.40625,0 -0.40625,-0.40625 -0.40625,-1.21875 0,-0.40625 -0.40625,0 -0.8125,0 0,0.40625 0,1.21875 0.8125,0.40625 -0.40625,0.40625 0,0.40625 0,0.40625 -0.40625,1.21875 -0.8125,0.40625 -0.8125,0.375 0,0.40625 0,0.40625 -0.375,0.40625 0.375,0.40625 0,0.8125 -0.375,0.8125 0.375,0.40625 0,1.625 0,0.40625 0,0.375 0,0.40625 0,0.40625 -0.78125,0.40625 0,0.40625 -0.40625,0 0,0.40625 0,0.40625 0.40625,0 0,0.40625 0.40625,0 0,0.40625 0,0.40625 -0.40625,0 -0.8125,-0.40625 -0.40625,0.40625 -0.40625,0 -0.40625,0 -1.625,0 -0.40625,0 -0.40625,0.40625 -0.78125,0.40625 0,0.40625 -0.40625,0 0,0.40625 0,0.375 0,1.21875 0,0.40625 0,0.40625 -0.40625,0 0,0.40625 -0.40625,0 0,0.40625 0,0.40625 0,0.8125 -0.40625,0 -0.40625,0 -0.8125,0 -0.40625,0 -0.40625,0.40625 -0.40625,-0.40625 -0.40625,-0.8125 0,-0.40625 -0.40625,0 0,-0.40625 -0.40625,0 -0.40625,0 -0.375,0.40625 0.375,0.40625 0.40625,1.21875 0.40625,1.21875 -0.40625,0.375 -0.40625,0 -0.375,0.8125 -0.40625,0 0,0.8125 -0.8125,0.40625 0.40625,1.21875 0,0.40625 0.40625,0 -0.40625,0.8125 0,0.40625 -0.40625,0 -0.40625,0 0.40625,0.40625 -0.40625,0.40625 1.625,0.375 0.375,0 0.8125,0 0.40625,-0.375 0,-0.40625 0,-0.40625 0.40625,0 0.8125,0 0.8125,-0.8125 1.625,0 0.40625,-0.40625 0.40625,-0.40625 0,-1.21875 0.375,0.40625 0,-0.40625 0.40625,-0.40625 0.40625,-0.40625 0.40625,-0.8125 0.40625,0 0.40625,-0.40625 0,-0.375 0,-0.40625 0.40625,-0.8125 0.8125,0 0,0.40625 0.40625,0 0,1.1875 0,0.40625 0,0.8125 0.40625,1.21875 0,0.8125 0,0.40625 0.40625,0 0.8125,0.40625 0,0.40625 0.78125,-0.40625 0,0.40625 0,0.40625 0.40625,0 0.40625,0 0.40625,-0.40625 0.8125,-0.40625 0,-0.40625 0,-0.40625 0.40625,0 0.40625,-0.8125 0.40625,-1.21875 0.8125,0 0.40625,0.40625 0.40625,-0.40625 0,0.40625 0.375,0 0.40625,-0.40625 -0.40625,-0.40625 0.40625,-0.40625 0,-0.40625 0.40625,-0.375 0.8125,0.375 0,0.40625 0.40625,0 -0.40625,0.40625 0.40625,0.40625 0.40625,0.40625 0.8125,0.40625 0,0.40625 -0.40625,0.40625 0.40625,0.40625 0.8125,0 0.40625,0 0.40625,0 0.40625,0.40625 0.40625,-0.40625 0.375,-0.40625 0.40625,-0.8125 0.8125,0 0,0.40625 0.40625,0 0.40625,0.40625 1.625,0.40625 -0.40625,0 0,0.8125 0.40625,0 0,0.40625 0.40625,0.8125 0.8125,0 0.40625,0.40625 0.78125,0 1.21875,0 -0.40625,0.78125 0.40625,0.40625 0,0.40625 0.40625,-0.40625 0,-0.40625 0.40625,0 0.40625,-0.40625 0,0.40625 0.40625,0.8125 0.40625,0 0.8125,0 0.8125,0 0.40625,0 0.375,0 0.40625,0.8125 0.40625,0 0,0.40625 0.40625,0.8125 0.40625,0 0.8125,-0.8125 0.40625,0 L -604.5,-242 l 0.8125,1.21875 0.40625,0.40625 0,0.40625 0.40625,0.40625 1.1875,0.8125 0.40625,-0.40625 0.8125,-0.8125 0.40625,0 0.40625,0.40625 0.8125,0.8125 0.40625,0 0.40625,-0.40625 0.8125,-0.40625 0,0.40625 0,0.40625 0.40625,0.375 1.1875,0.40625 0.40625,0.40625 0.8125,0.40625 -0.40625,0.40625 0.40625,0.40625 0.40625,0 -0.40625,0.8125 -0.40625,0.40625 -0.40625,0 -0.40625,0 0.8125,0.8125 -0.40625,0 0,0.40625 0,0.40625 -0.8125,0 0,0.8125 -0.375,0 0,0.375 -0.40625,0 -0.8125,0.40625 -0.40625,0.8125 -0.40625,0 0,-0.40625 -0.40625,0.40625 -0.40625,0 -0.40625,0.40625 -0.40625,0.40625 -0.40625,0.40625 0,0.40625 0,0.40625 -0.40625,0 0,0.40625 0,0.40625 -0.40625,-0.40625 -0.40625,0 0.40625,0.8125 0.40625,0 0.40625,0 0,0.40625 -0.8125,0 -0.40625,0 -0.40625,-0.40625 -0.375,0 0.375,0.8125 0,0.40625 -0.375,0.375 -0.40625,0 0,-0.375 0.40625,-0.40625 0,-0.40625 -0.40625,0 0,0.40625 -0.40625,0 -0.40625,0.40625 0,0.375 -0.40625,0 -0.40625,0 0,-0.375 -0.40625,0 -0.40625,0 0,0.375 -0.40625,0 -0.40625,0.40625 0,0.40625 0,0.40625 -0.40625,0 0,-0.8125 -0.8125,0 -0.78125,0.40625 -0.40625,0.40625 0,0.40625 0.40625,0.40625 -0.40625,0.40625 0.40625,0 0,0.40625 1.1875,0 0.8125,0.40625 0.8125,0.8125 0.40625,0 0.8125,-0.8125 0.8125,-0.8125 1.1875,-0.8125 0.40625,-0.8125 0,-0.40625 0.8125,-0.40625 1.21875,-0.375 0.40625,0.375 1.21875,-0.78125 0.40625,-0.40625 0.40625,0 1.1875,0 0,-0.40625 0.40625,0 -0.40625,-1.21875 0.40625,-0.40625 0.40625,0.40625 0.40625,-0.40625 0.40625,-0.40625 0.8125,0 0,-0.8125 0.8125,0 0,-0.40625 1.21875,0 1.1875,0 0.40625,0 0,-0.40625 0,-0.40625 0.40625,-0.40625 0,-0.375 0.40625,0 0,-0.40625 0.40625,0 0,0.40625 0.40625,-0.40625 0.40625,0.40625 0,-0.40625 0.40625,0.40625 0.40625,0 0.8125,-0.40625 0.40625,0 0,0.40625 0,0.375 0.40625,0 0.40625,0 0.375,-0.78125 0.8125,0.40625 0,0.375 0.40625,0.40625 0.40625,-0.40625 0,-0.375 0.40625,-0.40625 0.40625,0 0,-0.8125 0,-0.40625 0,-0.40625 0.8125,-0.40625 0.8125,0 0.40625,0 0.40625,0 0.8125,0.8125 0.375,0.8125 0.40625,0.40625 0.40625,0 0.40625,0 0.40625,0 0,-0.40625 0.40625,0 0.40625,0 0,0.40625 0.40625,-0.40625 0.40625,-0.40625 0,0.40625 0.8125,0 1.21875,-0.40625 0.78125,-1.21875 0,-0.40625 0.40625,0 0.40625,0 0,-0.40625 0.40625,0 0,0.40625 0.40625,0 0,0.8125 0,0.40625 0.40625,0 0.8125,0.40625 0.8125,0 0.8125,-0.40625 0.40625,0 0.40625,0 1.59375,-1.625 0.40625,-0.40625 -0.40625,-0.40625 0.40625,0 0,-0.40625 -0.40625,0 0,-0.40625 -0.40625,-0.40625 -0.40625,-0.40625 0,-0.375 -0.40625,0 0,-0.40625 -0.375,0 -0.40625,-0.40625 0,-0.40625 0.40625,-0.8125 0.375,0 0,0.40625 0.40625,0 0.40625,0 0,-0.40625 -0.40625,0 0,-0.8125 -0.40625,-0.8125 -0.375,-0.40625 0.375,-0.40625 -0.375,0 0.375,-0.40625 0,-0.40625 0,-0.375 0,-0.40625 0,-0.40625 -0.375,-0.40625 0,-0.40625 0,-0.40625 -0.40625,-0.8125 0,-0.8125 0,-0.40625 -0.40625,0 0,-0.40625 0,-0.40625 -0.40625,0 -0.8125,0.8125 -0.8125,0.8125 -0.40625,0 -0.40625,0.40625 -0.8125,1.21875 0,0.40625 -0.40625,-0.40625 0,-0.40625 -0.8125,0 0,-0.8125 0.8125,-0.8125 0,-0.8125 0,-0.8125 0,-0.40625 0,-0.375 0.40625,-0.8125 0.8125,-0.40625 0,-0.40625 0.40625,0 0,-0.8125 0.40625,-0.40625 0,-0.40625 0,-0.40625 -0.40625,0 0,-0.40625 0,-0.40625 0.8125,-0.40625 -0.40625,-0.8125 0.40625,0 0,-0.78125 0.40625,-0.40625 -0.8125,-0.40625 0,-0.40625 0,-0.40625 -0.40625,0 0,-0.40625 0,-0.8125 -0.8125,0.40625 -0.40625,0 0,-0.40625 -1.21875,0 0,-0.40625 0,-0.8125 0,-0.40625 0.40625,-0.78125 -0.40625,-1.21875 0,-0.40625 0,-0.8125 -1.1875,-0.8125 -0.40625,-0.8125 0,0.40625 -0.40625,0 -0.40625,-0.40625 0,-0.40625 -1.21875,0.40625 -0.40625,0 -0.40625,0 -0.40625,0.40625 0,-0.40625 0.40625,-0.8125 0,-0.40625 0,-0.40625 0,-0.375 0,-0.40625 -0.40625,0 -0.40625,-0.40625 -0.40625,0 -1.1875,-1.21875 0,-0.40625 0,-0.40625 0.40625,-0.40625 0,-0.40625 -0.8125,-0.40625 0.40625,0 0.40625,-0.40625 0,-0.8125 -0.40625,0.40625 -0.40625,-0.40625 0,0.40625 -0.40625,0 0,-0.40625 -0.8125,-0.40625 0,-0.375 0,-0.40625 -0.40625,-0.40625 0,-0.8125 -0.40625,-0.40625 -0.40625,0 -0.40625,-0.40625 -0.40625,0 0,0.8125 0,0.8125 -0.40625,-0.40625 -0.40625,0 0,-0.40625 -0.40625,0 0,0.40625 -0.375,0 -0.40625,0 0,-0.40625 -0.40625,0 0,-0.40625 -0.40625,-0.40625 -0.40625,-0.40625 0.40625,-0.40625 0,-0.40625 0.40625,-0.40625 0.40625,-0.40625 0.40625,0 0,-0.8125 -0.40625,-0.375 -0.40625,0.375 0,-0.375 0.40625,-1.21875 0,-0.40625 -0.40625,-0.8125 -0.40625,0 0,-0.40625 -0.40625,-0.40625 -0.8125,0 -0.8125,-0.40625 -0.40625,0 0,-0.40625 0.40625,0 0.40625,0 0,-0.8125 0.40625,-0.40625 0,-0.40625 0.40625,-0.375 -0.40625,-0.8125 0.40625,0 0.40625,-0.40625 -0.40625,-0.40625 0.40625,-0.40625 -0.40625,-0.40625 1.21875,-0.8125 0.40625,0 0,-0.40625 0,-0.40625 0,-0.40625 0,-0.40625 -0.40625,0.40625 0,-0.40625 -0.40625,0 0,-0.40625 0,-0.40625 0.40625,0.40625 0.40625,-0.40625 -0.40625,0 0.40625,-0.375 0,-0.40625 0.40625,-0.8125 0,-0.40625 0,-0.40625 0.375,0 0,-0.8125 0.40625,-0.8125 0,-0.40625 0,-0.8125 1.21875,-0.40625 0,-0.375 0,-0.40625 -0.40625,-0.8125 -0.8125,-0.40625 -0.40625,-1.21875 -0.375,0 0,-0.40625 0,-0.40625 0.375,-0.40625 -0.375,-0.40625 0.375,0 0,-0.40625 0,-0.8125 -0.375,0 -0.40625,0 -0.40625,0 -0.40625,-0.375 -0.8125,-0.40625 -0.40625,0 -0.40625,0 0,-0.40625 0,-0.40625 0,-0.40625 -0.40625,-0.8125 -0.40625,-0.8125 -1.21875,-0.40625 0,-0.40625 -0.40625,0 0,-0.8125 0,-0.40625 -0.78125,0 z m -38.40625,32.75 -1.21875,0.8125 0,0.40625 -0.40625,0 0,0.40625 0,0.40625 1.21875,-0.40625 1.625,0 0.40625,0 0.40625,-0.40625 -0.40625,-0.40625 -0.40625,-0.40625 -0.40625,-0.40625 -0.40625,0 -0.40625,0 z"
       transform="matrix(0.41615081,0,0,0.41600158,22.120001,-21.160187)"
       id="path556" />
    <path
       d="m -277.58044,-89.261134 53.27504,0 0,-46.079596 -53.27504,0 0,46.079596 z"
       id="path557"
       style="font-size:12px;fill:none;stroke:none" />
    <g
       id="g336"
       transform="matrix(0.26725854,0,0,0.26725854,-167.76706,-96.198054)"
       style="fill:#ffffff">
      <path
         class="d"
         d="m -206.97211,-132.72889 c -0.46178,-0.51124 -1.75363,-1.32023 -1.76633,-2.09691 a 3.8178234,3.8164543 0 0 1 0.41676,-1.09174 7.5317447,7.5290437 0 0 0 0.3625,-1.86379 5.207802,5.2059344 0 0 0 -2.91387,-5.46791 c -0.97437,-0.39353 -2.27199,-0.20773 -3.1517,-0.77321 a 4.8268278,4.8250968 0 0 1 -1.21565,-1.6653 c -1.03902,-1.82341 -2.37243,-3.56141 -4.70215,-3.47947 a 7.0422505,7.0397251 0 0 0 -3.42068,1.15405 c -0.46179,0.28851 -0.89125,0.62665 -1.35419,0.91516 a 1.7547903,1.754161 0 0 1 -0.95475,0.40046 c -0.44216,-0.0473 -0.89933,-0.54817 -1.29185,-0.7536 a 5.3474925,5.3455749 0 0 0 -1.64627,-0.54009 6.8644626,6.8620009 0 0 0 -3.18979,0.1281 5.0577212,5.0559075 0 0 0 -2.52136,1.93304 5.8623849,5.8602827 0 0 0 -0.70538,1.39986 c -0.18125,0.50086 -0.18933,1.05827 -0.37982,1.5499 -0.27014,0.69243 -1.34264,0.71089 -1.9903,0.83207 a 8.1078238,8.1049163 0 0 0 -2.65527,0.85515 5.1316071,5.1297669 0 0 0 -2.25237,5.57523 20.854297,20.846819 0 0 1 0.53452,2.67164 c 0.0416,0.92324 -0.65805,1.56605 -1.15447,2.28849 a 5.0034613,5.001667 0 0 0 0.76426,6.39807 8.9886824,8.985459 0 0 0 2.88617,1.86033 c 0.7377,0.38776 0.56453,1.30985 0.55645,2.04729 a 7.9727512,7.9698921 0 0 0 0.53683,3.20942 5.0577212,5.0559075 0 0 0 5.31055,3.02478 5.5691503,5.5671531 0 0 1 2.83075,0.14195 c 0.83006,0.45585 1.3565,1.44141 2.12307,2.0092 a 5.1593144,5.1574642 0 0 0 6.43846,-0.68435 12.864229,12.859616 0 0 0 1.72131,-2.37273 3.3087033,3.3075168 0 0 1 0.65574,-0.78245 1.3564991,1.3560126 0 0 1 1.03902,-0.19735 c 1.11291,0.0635 2.19349,0.42123 3.31101,0.46163 a 5.8531492,5.8510502 0 0 0 3.35488,-0.87478 4.8683886,4.8666428 0 0 0 2.06766,-2.55392 5.3001594,5.2982587 0 0 0 0.20895,-1.73108 6.9141047,6.9116252 0 0 1 -0.0104,-1.84648 3.9251888,3.9237812 0 0 1 1.35997,-1.65953 9.2034133,9.2001129 0 0 0 1.93373,-2.13038 c 1.23759,-2.12346 0.40406,-4.57005 -1.136,-6.29075 z"
         id="path61"
         style="fill:#ffffff;stroke-width:1.15426" />
    </g>
  </g>
</svg>
